<?xml version="1.0" encoding="utf-8"?>
<!-- Generator: Adobe Illustrator 17.0.0, SVG Export Plug-In . SVG Version: 6.00 Build 0)  -->
<!DOCTYPE svg PUBLIC "-//W3C//DTD SVG 1.1//EN" "http://www.w3.org/Graphics/SVG/1.1/DTD/svg11.dtd">
<svg version="1.1" id="Layer_1" xmlns="http://www.w3.org/2000/svg" xmlns:xlink="http://www.w3.org/1999/xlink" x="0px" y="0px"
	 width="194px" height="42px" viewBox="0 0 194 42" enable-background="new 0 0 194 42" xml:space="preserve">
<g>
	<g>
		<path fill="#191518" d="M181.076,13.534c-2.558,0.763-4.263,4.448-4.263,10.867c0,7.054,3.41,11.502,9.013,11.502
			c4.08,0,6.395-1.653,7.795-3.686l0.366,0.254c-0.853,3.177-4.446,9.342-11.997,9.342c-8.343,0-12.789-6.609-12.789-13.98
			c0-8.197,5.42-13.836,11.875-14.663V13.534z M178.823,23.83v-0.445l7.186-0.488c0.268-4.297-1.035-9.046-3.35-9.491v-0.351
			c6.699,0.254,10.353,4.521,10.353,10.774H178.823z"/>
		<path fill="#191518" d="M21.145,41.592C7.869,41.211,0.5,32.026,0.5,21.096c0-12.138,9.744-19.292,19.61-20.055v0.292
			c-0.913,0.191-2.497,0.699-3.532,1.398c-3.776,2.478-6.516,7.435-6.516,17.603c0,9.596,2.192,17.031,7.369,19.827
			c1.157,0.635,2.497,1.017,3.715,1.144V41.592z M35.395,13.979c-1.218-5.592-4.75-10.358-9.805-12.074
			c-0.974-0.317-1.949-0.445-2.984-0.635v-0.27c5.237,0,10.231,0.461,12.545,1.351l0.792,11.629H35.395z M24.007,23.892v-0.508
			h12.961v0.508l0.011,6.863v8.896c-2.862,1.017-9.622,1.793-13.337,1.921v-0.332c1.279-0.127,2.07-0.318,3.106-0.762
			c1.34-0.572,2.07-1.525,2.07-3.241v-6.482C28.818,25.862,27.6,24.464,24.007,23.892z"/>
		<path fill="#191518" d="M51.24,13.534c-2.558,0.763-4.263,4.448-4.263,10.867c0,7.054,3.41,11.502,9.013,11.502
			c4.08,0,6.395-1.653,7.795-3.686l0.366,0.254c-0.853,3.177-4.446,9.342-11.997,9.342c-8.343,0-12.789-6.609-12.789-13.98
			c0-8.197,5.42-13.836,11.875-14.663V13.534z M48.987,23.83v-0.445l7.186-0.488c0.268-4.297-1.035-9.046-3.35-9.491v-0.351
			c6.699,0.254,10.353,4.521,10.353,10.774H48.987z"/>
		<path fill="#191518" d="M73.651,35.839c0,3.495,0.792,4.575,3.349,5.021v0.445H62.506v-0.445c2.801-0.445,3.532-1.398,3.532-5.275
			V21.287c0-1.97-0.67-3.305-2.923-4.575V16.33l10.414-3.495l0.122,0.127V35.839z M83.516,22.494c0-3.432-1.218-5.084-4.507-5.084
			c-1.34,0-2.68,0.318-3.776,0.762v-0.191c1.827-2.669,5.359-5.083,8.891-5.083c5.116,0,7.004,3.368,7.004,8.261v14.425
			c0,3.876,0.731,4.829,3.532,5.275v0.445H80.167v-0.445c2.558-0.445,3.349-1.525,3.349-5.021V22.494z"/>
		<path fill="#191518" d="M105.501,40.541c0.731,0.445,1.462,0.699,2.131,0.762v0.299c-8.039-0.254-14.311-5.573-14.311-14.025
			c0-8.706,6.638-13.76,13.337-14.459v0.287c-1.096,0.191-2.253,0.953-3.045,2.161c-1.218,1.779-2.131,5.592-2.131,12.201
			C101.482,35.648,103.004,39.143,105.501,40.541z M110.617,14.042c-0.731-0.445-1.401-0.572-2.132-0.636v-0.331
			c7.978,0.254,14.251,5.669,14.251,14.121c0,8.706-6.516,13.566-13.337,14.392v-0.285c0.975-0.191,2.253-1.08,3.045-2.288
			c1.279-1.779,2.131-5.465,2.131-12.074C114.575,19.062,113.114,15.44,110.617,14.042z"/>
		<path fill="#191518" d="M132.844,35.839c0,3.495,0.791,4.575,3.349,5.021v0.445H121.7v-0.445c2.801-0.445,3.532-1.398,3.532-5.275
			V21.287c0-1.97-0.67-3.305-2.923-4.575V16.33l10.414-3.495l0.122,0.127V35.839z M149.835,35.839c0,3.622,0.487,4.575,3.228,5.021
			v0.445h-14.25v-0.445c2.558-0.445,3.35-1.525,3.35-5.021V22.494c0-3.432-0.914-5.084-4.202-5.084
			c-1.279,0-2.436,0.318-3.532,0.762v-0.191c1.827-2.669,5.359-5.083,8.891-5.083c5.116,0,6.516,3.368,6.516,8.261V35.839z
			 M159.153,22.494c0-3.432-0.974-5.084-4.202-5.084c-1.34,0-2.497,0.318-3.593,0.762v-0.191c1.827-2.669,5.42-5.083,8.891-5.083
			c5.177,0,6.516,3.368,6.516,8.261v14.425c0,3.876,0.731,4.829,3.471,5.275v0.445h-14.494v-0.445
			c2.618-0.445,3.41-1.525,3.41-5.021V22.494z"/>
	</g>
</g>
</svg>
