<?xml version="1.0" encoding="utf-8"?>
<!-- Generator: Adobe Illustrator 17.0.0, SVG Export Plug-In . SVG Version: 6.00 Build 0)  -->
<!DOCTYPE svg PUBLIC "-//W3C//DTD SVG 1.1//EN" "http://www.w3.org/Graphics/SVG/1.1/DTD/svg11.dtd">
<svg version="1.1" id="Layer_1" xmlns="http://www.w3.org/2000/svg" xmlns:xlink="http://www.w3.org/1999/xlink" x="0px" y="0px"
	 width="140px" height="240px" viewBox="0 0 140 240" enable-background="new 0 0 140 240" xml:space="preserve">
<g>
	<path fill="#FFFFFF" d="M5.9,89.133H3.4V85.8h2.5v-2.917c0-2.361,1.481-4.583,5-4.583c1.412,0,2.5,0.185,2.5,0.185l-0.139,3.148
		h-2.153c-1.273,0-1.458,0.694-1.458,1.667v2.5h3.75l-0.255,3.333H9.649v9.166H5.9V89.133z"/>
</g>
<g>
	<path fill="#FFFFFF" d="M44.013,86.288c0,0.182,0,0.342,0,0.524c0,5.333-4.057,11.487-11.487,11.487
		c-2.279,0-4.422-0.501-6.2-1.641c0.319,0.046,0.638,0.068,0.957,0.068c1.892,0,3.647-0.821,5.014-1.915
		c-1.755-0.023-3.259-1.208-3.761-2.803c0.251,0.046,0.501,0.068,0.752,0.068c0.365,0,0.729-0.046,1.071-0.137
		c-1.846-0.365-3.236-2.006-3.236-3.966c0-0.023,0-0.023,0-0.046c0.547,0.296,1.162,0.479,1.823,0.501
		c-1.094-0.729-1.801-1.96-1.801-3.35c0-0.752,0.205-1.368,0.547-1.96c2.006,2.439,4.969,3.966,8.319,4.148
		c-0.068-0.296-0.091-0.615-0.091-0.934c0-2.234,1.801-4.034,4.034-4.034c1.162,0,2.211,0.501,2.963,1.276
		c0.912-0.182,1.778-0.524,2.553-0.98c-0.296,0.934-0.934,1.732-1.778,2.234c0.821-0.091,1.595-0.319,2.325-0.638
		C45.472,85.011,44.788,85.718,44.013,86.288z"/>
</g>
<g>
	<path fill="#BABABA" d="M38.43,15.665v1.08c0,2.229-1.769,3.998-3.998,3.998h-0.973l-2.809,3.026v-3.026h-0.324
		c-2.229,0-3.998-1.769-3.998-3.998v-1.08c0-2.229,1.769-3.999,3.998-3.999h4.214C36.768,11.666,38.43,13.436,38.43,15.665z"/>
</g>
<g>
	<path fill="#BABABA" d="M15.66,13.777v5.254h-1.751V17.28H5.151v1.751H3.4v-5.254H15.66z M6.027,15.309
		c0-0.356-0.301-0.657-0.657-0.657c-0.37,0-0.657,0.301-0.657,0.657c0,0.369,0.287,0.657,0.657,0.657
		C5.726,15.966,6.027,15.679,6.027,15.309z M13.471,13.339H5.589l0.438-1.751h7.006L13.471,13.339z M5.589,17.717h7.882v3.503
		h-2.628v2.627H5.589V17.717z M7.778,15.309c0-0.356-0.301-0.657-0.657-0.657c-0.37,0-0.657,0.301-0.657,0.657
		c0,0.369,0.287,0.657,0.657,0.657C7.477,15.966,7.778,15.679,7.778,15.309z M6.903,19.031h5.254v-0.438H6.903V19.031z
		 M6.903,20.345h5.254v-0.438H6.903V20.345z M11.281,21.658h2.189l-2.189,2.189V21.658z"/>
</g>
<g>
	<path fill="#5B5B5B" d="M38.43,37.165v1.08c0,2.229-1.769,3.998-3.998,3.998h-0.973l-2.809,3.026v-3.026h-0.324
		c-2.229,0-3.998-1.769-3.998-3.998v-1.08c0-2.229,1.769-3.999,3.998-3.999h4.214C36.768,33.166,38.43,34.936,38.43,37.165z"/>
</g>
<g>
	<path fill="#5B5B5B" d="M15.66,35.277v5.254h-1.751V38.78H5.151v1.751H3.4v-5.254H15.66z M6.027,36.809
		c0-0.356-0.301-0.657-0.657-0.657c-0.37,0-0.657,0.301-0.657,0.657c0,0.369,0.287,0.657,0.657,0.657
		C5.726,37.466,6.027,37.179,6.027,36.809z M13.471,34.839H5.589l0.438-1.751h7.006L13.471,34.839z M5.589,39.217h7.882v3.503
		h-2.628v2.627H5.589V39.217z M7.778,36.809c0-0.356-0.301-0.657-0.657-0.657c-0.37,0-0.657,0.301-0.657,0.657
		c0,0.369,0.287,0.657,0.657,0.657C7.477,37.466,7.778,37.179,7.778,36.809z M6.903,40.531h5.254v-0.438H6.903V40.531z
		 M6.903,41.845h5.254v-0.438H6.903V41.845z M11.281,43.158h2.189l-2.189,2.189V43.158z"/>
</g>
<g>
	<path fill="#FFFFFF" d="M60.75,84.802c-1.332,0-2.207-0.916-2.207-2.062c0-1.167,0.895-2.062,2.27-2.062
		c1.354,0,2.209,0.896,2.229,2.062c0,1.146-0.875,2.062-2.27,2.062H60.75z M62.666,86.677v11.622h-3.748V86.677H62.666z
		 M68.665,91.551c0-1.5,0.959-2.25,2.084-2.25s2.041,0.75,2.041,2.624v6.374h3.75v-6.748c0-3.374-1.875-5.249-4.5-5.249
		c-1.5,0-2.625,0.854-3.375,1.979l-0.123-1.604h-3.688c0,0.396,0.062,2.624,0.062,2.624v8.998h3.748V91.551z"/>
</g>
<g>
	<path fill="#FFFFFF" d="M99.389,94.904c0,1.708-1.646,3.395-4.645,3.395c-2.604,0-4.812-1.062-4.812-2.77
		c0-1.729,2.021-3.395,4.624-3.395c0.291,0,0.541,0,0.812,0c-0.354-0.354-0.625-0.771-0.625-1.291c0-0.312,0.083-0.625,0.229-0.896
		c-0.146,0.021-0.291,0.021-0.437,0.021c-2.146,0-3.583-1.521-3.583-3.416c0-1.854,1.979-3.457,4.104-3.457c1.166,0,4.707,0,4.707,0
		l-1.062,0.771h-1.499c0.999,0.375,1.52,1.521,1.52,2.708c0,1-0.541,1.854-1.333,2.458c-0.749,0.604-0.896,0.854-0.896,1.354
		c0,0.437,0.812,1.166,1.25,1.458C98.972,92.738,99.389,93.55,99.389,94.904z M98.16,95.092c0-0.167-0.021-0.312-0.042-0.479
		c-0.208-0.771-0.916-1.166-1.896-1.854c-0.354-0.104-0.75-0.167-1.166-0.187c-1.812,0-3.416,1.104-3.416,2.458
		c0,1.375,1.291,2.52,3.104,2.52C97.285,97.549,98.16,96.466,98.16,95.092z M97.035,86.677c-0.208-1.604-1.354-2.874-2.583-2.916
		c-1.208-0.042-2.021,1.187-1.812,2.77c0.208,1.604,1.374,2.916,2.582,2.958C96.431,89.53,97.243,88.26,97.035,86.677z
		 M107.929,86.469h-3v2.999h-0.75v-2.999h-2.999v-0.75h2.999V82.72h0.75v2.999h3V86.469z"/>
</g>
<g>
	<path fill="#FFFFFF" d="M128.002,92.676l-8.998-6.748c0-0.625,0.5-1.125,1.125-1.125h15.746c0.625,0,1.125,0.5,1.125,1.125
		L128.002,92.676z M128.002,94.696L137,87.948v9.227c0,0.625-0.5,1.125-1.125,1.125h-15.746c-0.625,0-1.125-0.5-1.125-1.125v-9.227
		L128.002,94.696z"/>
</g>
<g>
	<path fill="#5B5B5B" d="M5.9,119.333H3.4V116h2.5v-2.917c0-2.361,1.481-4.583,5-4.583c1.412,0,2.5,0.185,2.5,0.185l-0.139,3.148
		h-2.153c-1.273,0-1.458,0.694-1.458,1.667v2.5h3.75l-0.255,3.333H9.649v9.166H5.9V119.333z"/>
</g>
<g>
	<path fill="#5B5B5B" d="M44.013,116.488c0,0.182,0,0.342,0,0.524c0,5.333-4.057,11.487-11.487,11.487
		c-2.279,0-4.422-0.501-6.2-1.641c0.319,0.046,0.638,0.068,0.957,0.068c1.892,0,3.647-0.821,5.014-1.915
		c-1.755-0.023-3.259-1.208-3.761-2.803c0.251,0.046,0.501,0.068,0.752,0.068c0.365,0,0.729-0.046,1.071-0.137
		c-1.846-0.365-3.236-2.006-3.236-3.966c0-0.023,0-0.023,0-0.046c0.547,0.296,1.162,0.479,1.823,0.501
		c-1.094-0.729-1.801-1.96-1.801-3.35c0-0.752,0.205-1.368,0.547-1.96c2.006,2.439,4.969,3.966,8.319,4.148
		c-0.068-0.296-0.091-0.615-0.091-0.934c0-2.234,1.801-4.034,4.034-4.034c1.162,0,2.211,0.501,2.963,1.276
		c0.912-0.182,1.778-0.524,2.553-0.98c-0.296,0.934-0.934,1.732-1.778,2.234c0.821-0.091,1.595-0.319,2.325-0.638
		C45.472,115.212,44.788,115.918,44.013,116.488z"/>
</g>
<g>
	<path fill="#5B5B5B" d="M60.75,115.002c-1.332,0-2.207-0.916-2.207-2.062c0-1.167,0.895-2.062,2.27-2.062
		c1.354,0,2.209,0.896,2.229,2.062c0,1.146-0.875,2.062-2.27,2.062H60.75z M62.666,116.877v11.622h-3.748v-11.622H62.666z
		 M68.665,121.751c0-1.5,0.959-2.25,2.084-2.25s2.041,0.75,2.041,2.624v6.374h3.75v-6.748c0-3.374-1.875-5.249-4.5-5.249
		c-1.5,0-2.625,0.854-3.375,1.979l-0.123-1.604h-3.688c0,0.396,0.062,2.624,0.062,2.624v8.998h3.748V121.751z"/>
</g>
<g>
	<path fill="#5B5B5B" d="M99.389,125.104c0,1.708-1.646,3.395-4.645,3.395c-2.604,0-4.812-1.062-4.812-2.77
		c0-1.729,2.021-3.395,4.624-3.395c0.291,0,0.541,0,0.812,0c-0.354-0.354-0.625-0.771-0.625-1.291c0-0.312,0.083-0.625,0.229-0.896
		c-0.146,0.021-0.291,0.021-0.437,0.021c-2.146,0-3.583-1.521-3.583-3.416c0-1.854,1.979-3.457,4.104-3.457c1.166,0,4.707,0,4.707,0
		l-1.062,0.771h-1.499c0.999,0.375,1.52,1.521,1.52,2.708c0,1-0.541,1.854-1.333,2.458c-0.749,0.604-0.896,0.854-0.896,1.354
		c0,0.437,0.812,1.166,1.25,1.458C98.972,122.938,99.389,123.75,99.389,125.104z M98.16,125.292c0-0.167-0.021-0.312-0.042-0.479
		c-0.208-0.771-0.916-1.166-1.896-1.854c-0.354-0.104-0.75-0.167-1.166-0.187c-1.812,0-3.416,1.104-3.416,2.458
		c0,1.375,1.291,2.52,3.104,2.52C97.285,127.749,98.16,126.666,98.16,125.292z M97.035,116.877
		c-0.208-1.604-1.354-2.874-2.583-2.916c-1.208-0.042-2.021,1.187-1.812,2.77c0.208,1.604,1.374,2.916,2.582,2.958
		C96.431,119.73,97.243,118.46,97.035,116.877z M107.929,116.669h-3v2.999h-0.75v-2.999h-2.999v-0.75h2.999v-2.999h0.75v2.999h3
		V116.669z"/>
</g>
<g>
	<path fill="#5B5B5B" d="M128.002,122.876l-8.998-6.748c0-0.625,0.5-1.125,1.125-1.125h15.746c0.625,0,1.125,0.5,1.125,1.125
		L128.002,122.876z M128.002,124.896l8.998-6.748v9.227c0,0.625-0.5,1.125-1.125,1.125h-15.746c-0.625,0-1.125-0.5-1.125-1.125
		v-9.227L128.002,124.896z"/>
</g>
<g>
	<g>
		<path fill="#BBBBBB" d="M12.399,159.5c3.308,0,6,2.692,6,6s-2.692,6-6,6s-6-2.692-6-6S9.091,159.5,12.399,159.5 M12.399,157.5
			c-4.418,0-8,3.582-8,8s3.582,8,8,8s8-3.582,8-8S16.817,157.5,12.399,157.5L12.399,157.5z"/>
	</g>
	<line fill="none" stroke="#BBBBBB" stroke-width="2" stroke-miterlimit="10" x1="18.399" y1="171.5" x2="22.399" y2="175.5"/>
</g>
</svg>
